<?xml version="1.0" encoding="utf-8"?>
<!-- Generator: Adobe Illustrator 24.1.1, SVG Export Plug-In . SVG Version: 6.00 Build 0)  -->
<svg version="1.1" id="Calque_1" xmlns="http://www.w3.org/2000/svg" xmlns:xlink="http://www.w3.org/1999/xlink" x="0px" y="0px"
	 viewBox="0 0 225 179" style="enable-background:new 0 0 225 179;" xml:space="preserve">
<style type="text/css">
	.st0{fill:#000091;}
	.st1{fill:#E1000F;}
	.st2{fill:#9D9D9C;}
	.st3{fill:none;}
</style>
<g id="Calque_1_1_">
</g>
<g id="vect">
	<g>
		<g>
			<g>
				<path d="M1.36,30h3.85l3.64,6.2l3.64-6.2h3.85v15.06h-3.06V34.34L9.92,39.9H7.77l-3.36-5.55v10.72H1.36V30z"/>
				<path d="M20.53,30h3.06v15.06h-3.06V30z"/>
				<path d="M27.8,30h3.92l6.73,10.78V30h3.06v15.06h-3.92l-6.73-10.82v10.82H27.8V30z"/>
				<path d="M45.72,30h3.06v15.06h-3.06V30z"/>
				<path d="M53.86,40.93c0.9,1.16,2.11,1.85,3.34,1.85c1.21,0,1.94-0.65,1.94-1.74c0-2.69-6.89-2.09-6.89-7.1
					c0-2.39,1.96-4.37,4.82-4.37c2.26,0,4,1.01,5.27,2.54l-2.24,2c-0.88-1.14-1.87-1.87-3.01-1.87c-1.05,0-1.74,0.69-1.74,1.57
					c0,2.69,6.89,2.07,6.89,7.17c-0.04,2.8-2.24,4.52-4.99,4.52c-2.54,0-4.26-0.93-5.59-2.52L53.86,40.93z"/>
				<path d="M63.78,30h12.35v2.78h-4.65v12.29h-3.06V32.77h-4.65L63.78,30L63.78,30z"/>
				<path d="M78.82,30h8.78v2.6h-5.72v3.49h4.86v2.6h-4.86v3.77h5.72v2.6h-8.78V30z M79.08,25.8h3.14l2.43,2.9h-2.8L79.08,25.8z"/>
				<path d="M91.15,30h4.6c3.31,0,5.36,1.7,5.36,4.5c0,1.81-0.88,3.16-2.41,3.89l4.73,6.67h-3.66l-4-6.09H94.2v6.09h-3.06L91.15,30
					L91.15,30z M94.2,32.6v3.77h1.72c1.29,0,2.04-0.69,2.04-1.91c0-1.14-0.75-1.85-2.04-1.85H94.2z"/>
				<path d="M105.33,30h8.78v2.6h-5.72v3.49h4.86v2.6h-4.86v3.77h5.72v2.6h-8.78V30z"/>
				<path d="M1.36,51.72h5.92c4.78,0,8,3.46,8,7.53s-3.23,7.53-8,7.53H1.36V51.72z M4.41,54.49V64h2.9c2.8,0,4.82-2.09,4.82-4.76
					c0-2.69-2.02-4.76-4.82-4.76L4.41,54.49L4.41,54.49z"/>
				<path d="M18.23,51.72H27v2.6h-5.72v3.49h4.86v2.6h-4.86v3.77H27v2.6h-8.78V51.72z"/>
				<path d="M36.15,51.72h3.06V64h5.72v2.78h-8.78V51.72z"/>
				<path d="M44.28,57.91l1.94-6.2h3.1l-2.5,6.2L44.28,57.91L44.28,57.91z"/>
				<path d="M51.69,51.72h8.78v2.6h-5.72v3.49h4.86v2.6h-4.86v3.77h5.72v2.6h-8.78V51.72z"/>
				<path d="M64.01,51.72h3.92l6.73,10.78V51.72h3.06v15.06H73.8l-6.73-10.82v10.82h-3.06L64.01,51.72L64.01,51.72z"/>
				<path d="M82.8,62.65c0.9,1.16,2.11,1.85,3.34,1.85c1.21,0,1.94-0.65,1.94-1.74c0-2.69-6.89-2.09-6.89-7.1
					c0-2.39,1.96-4.37,4.82-4.37c2.26,0,4,1.01,5.27,2.54l-2.24,2c-0.88-1.14-1.87-1.87-3.01-1.87c-1.05,0-1.74,0.69-1.74,1.57
					c0,2.69,6.89,2.07,6.89,7.17c-0.04,2.8-2.24,4.52-4.99,4.52c-2.54,0-4.26-0.93-5.59-2.52L82.8,62.65z"/>
				<path d="M94.38,51.72h8.78v2.6h-5.72v3.49h4.86v2.6h-4.86v3.77h5.72v2.6h-8.78V51.72z"/>
				<path d="M106.71,51.72h3.06v15.06h-3.06V51.72z"/>
				<path d="M124.41,63.03V60.5h-3.83v-2.78h6.89v6.41c-1.4,1.87-3.74,3.08-6.56,3.08c-4.88,0-8.22-3.66-8.22-7.96s3.25-7.96,8-7.96
					c2.73,0,4.97,1.23,6.35,3.06l-2.41,1.87c-0.86-1.23-2.22-2.07-3.94-2.07c-2.84,0-4.86,2.22-4.86,5.1s2.13,5.1,5.08,5.1
					C122.33,64.35,123.55,63.85,124.41,63.03z"/>
				<path d="M130.87,51.72h3.92l6.73,10.78V51.72h3.06v15.06h-3.92l-6.73-10.82v10.82h-3.06V51.72z"/>
				<path d="M148.79,51.72h8.78v2.6h-5.72v3.49h4.86v2.6h-4.86v3.77h5.72v2.6h-8.78V51.72z"/>
				<path d="M161.12,51.72h3.85l3.64,6.2l3.64-6.2h3.85v15.06h-3.06V56.06l-3.36,5.55h-2.15l-3.36-5.55v10.72h-3.06L161.12,51.72
					L161.12,51.72z"/>
				<path d="M180.29,51.72h8.78v2.6h-5.72v3.49h4.86v2.6h-4.86v3.77h5.72v2.6h-8.78L180.29,51.72L180.29,51.72z"/>
				<path d="M192.62,51.72h3.92l6.73,10.78V51.72h3.06v15.06h-3.92l-6.74-10.82v10.82h-3.06L192.62,51.72L192.62,51.72z"/>
				<path d="M209,51.72h12.35v2.78h-4.65v12.29h-3.06V54.49H209V51.72L209,51.72z"/>
				<path d="M2.22,84.37c0.9,1.16,2.11,1.85,3.34,1.85c1.21,0,1.94-0.65,1.94-1.74c0-2.69-6.89-2.09-6.89-7.1
					c0-2.39,1.96-4.37,4.82-4.37c2.26,0,4,1.01,5.27,2.54l-2.24,2c-0.88-1.14-1.87-1.87-3.01-1.87c-1.05,0-1.74,0.69-1.74,1.57
					c0,2.69,6.89,2.07,6.89,7.17c-0.04,2.8-2.24,4.52-4.99,4.52C3.06,88.93,1.33,88,0,86.41L2.22,84.37z"/>
				<path d="M22.51,73.44h3.06v9.17c0,3.96-2.32,6.33-6.11,6.33c-3.77,0-6.09-2.37-6.09-6.33v-9.17h3.06v9.42
					c0,2.02,1.14,3.21,3.06,3.21c1.87,0,3.03-1.18,3.03-3.21L22.51,73.44L22.51,73.44z"/>
				<path d="M29.35,73.44h4.97c3.31,0,5.34,1.7,5.34,4.5c0,2.78-2.02,4.48-5.34,4.48h-1.91v6.09h-3.06L29.35,73.44L29.35,73.44z
					 M32.41,76.04v3.77h2.04c1.29,0,2.07-0.69,2.07-1.91c0-1.14-0.77-1.85-2.07-1.85H32.41z"/>
				<path d="M42.17,73.44h8.78v2.6h-5.72v3.49h4.86v2.6h-4.86v3.77h5.72v2.6h-8.78L42.17,73.44L42.17,73.44z M45.14,72.14l2.43-2.9
					h3.14l-2.8,2.9H45.14z"/>
				<path d="M54.5,73.44h4.6c3.31,0,5.36,1.7,5.36,4.5c0,1.81-0.88,3.16-2.41,3.89l4.73,6.67h-3.66l-4-6.09h-1.57v6.09H54.5
					L54.5,73.44L54.5,73.44z M57.56,76.04v3.77h1.72c1.29,0,2.04-0.69,2.04-1.91c0-1.14-0.75-1.85-2.04-1.85H57.56z"/>
				<path d="M68.68,73.44h3.06V88.5h-3.06V73.44z"/>
				<path d="M75.96,73.44h8.78v2.6h-5.72v3.49h4.86v2.6h-4.86v3.77h5.72v2.6h-8.78V73.44z"/>
				<path d="M97.09,73.44h3.06v9.17c0,3.96-2.32,6.33-6.11,6.33c-3.77,0-6.09-2.37-6.09-6.33v-9.17H91v9.42
					c0,2.02,1.14,3.21,3.06,3.21c1.87,0,3.03-1.18,3.03-3.21L97.09,73.44L97.09,73.44z"/>
				<path d="M103.93,73.44h4.6c3.31,0,5.36,1.7,5.36,4.5c0,1.81-0.88,3.16-2.41,3.89l4.73,6.67h-3.66l-4-6.09h-1.57v6.09h-3.06
					L103.93,73.44L103.93,73.44z M106.98,76.04v3.77h1.72c1.29,0,2.04-0.69,2.04-1.91c0-1.14-0.75-1.85-2.04-1.85H106.98z"/>
				<path d="M117.25,91.94l1.96-6.43h3.08l-2.5,6.43H117.25z"/>
				<path d="M1.36,95.15h5.92c4.78,0,8,3.46,8,7.53c0,4.07-3.23,7.53-8,7.53H1.36V95.15z M4.41,97.93v9.51h2.9
					c2.8,0,4.82-2.09,4.82-4.76c0-2.69-2.02-4.76-4.82-4.76L4.41,97.93L4.41,97.93z"/>
				<path d="M18.23,95.15H27v2.6h-5.72v3.49h4.86v2.6h-4.86v3.77H27v2.6h-8.78V95.15z"/>
				<path d="M36.15,95.15h3.06v12.29h5.72v2.78h-8.78V95.15z"/>
				<path d="M52.07,95.15h4l5.7,15.06h-3.25l-1.44-3.92h-6.02l-1.44,3.92h-3.25L52.07,95.15z M56.14,103.7l-2.07-5.66l-2.07,5.66
					H56.14z"/>
				<path d="M69.69,95.15h4.6c3.31,0,5.36,1.7,5.36,4.5c0,1.81-0.88,3.16-2.41,3.89l4.73,6.67h-3.66l-4-6.09h-1.57v6.09H69.7
					L69.69,95.15L69.69,95.15z M72.75,97.76v3.77h1.72c1.29,0,2.04-0.69,2.04-1.91c0-1.14-0.75-1.85-2.04-1.85H72.75z"/>
				<path d="M83.87,95.15h8.78v2.6h-5.72v3.49h4.86v2.6h-4.86v3.77h5.72v2.6h-8.78V95.15z"/>
				<path d="M106.51,105.72l2.41,1.85c-1.38,1.87-3.61,3.08-6.35,3.08c-4.76,0-8-3.66-8-7.96c0-4.3,3.25-7.96,8-7.96
					c2.73,0,4.97,1.23,6.35,3.06l-2.41,1.87c-0.86-1.23-2.22-2.07-3.94-2.07c-2.84,0-4.86,2.22-4.86,5.1c0,2.88,2.02,5.1,4.86,5.1
					C104.29,107.78,105.65,106.94,106.51,105.72z"/>
				<path d="M111.57,95.15h3.06v6h7.6v-6h3.06v15.06h-3.06v-6.28h-7.6v6.28h-3.06V95.15z"/>
				<path d="M129.49,95.15h8.78v2.6h-5.72v3.49h4.86v2.6h-4.86v3.77h5.72v2.6h-8.78V95.15z"/>
				<path d="M141.82,95.15h4.6c3.31,0,5.36,1.7,5.36,4.5c0,1.81-0.88,3.16-2.41,3.89l4.73,6.67h-3.66l-4-6.09h-1.57v6.09h-3.06
					L141.82,95.15L141.82,95.15z M144.88,97.76v3.77h1.72c1.29,0,2.04-0.69,2.04-1.91c0-1.14-0.75-1.85-2.04-1.85H144.88z"/>
				<path d="M166.5,105.72l2.41,1.85c-1.38,1.87-3.61,3.08-6.35,3.08c-4.76,0-8-3.66-8-7.96c0-4.3,3.25-7.96,8-7.96
					c2.73,0,4.97,1.23,6.35,3.06l-2.41,1.87c-0.86-1.23-2.22-2.07-3.94-2.07c-2.84,0-4.86,2.22-4.86,5.1c0,2.88,2.02,5.1,4.86,5.1
					C164.29,107.78,165.64,106.94,166.5,105.72z"/>
				<path d="M171.56,95.15h3.06v6h7.6v-6h3.06v15.06h-3.06v-6.28h-7.6v6.28h-3.06V95.15z"/>
				<path d="M189.48,95.15h8.78v2.6h-5.72v3.49h4.86v2.6h-4.86v3.77h5.72v2.6h-8.78V95.15z"/>
				<path d="M1.36,116.87h8.78v2.6H4.41v3.49h4.86v2.6H4.41v3.77h5.72v2.6H1.36V116.87z"/>
				<path d="M12.46,116.87h12.35v2.78h-4.65v12.29h-3.06v-12.29h-4.65V116.87z"/>
				<path d="M33.09,116.87h5.92c4.78,0,8,3.46,8,7.53c0,4.07-3.23,7.53-8,7.53h-5.92L33.09,116.87L33.09,116.87z M36.15,119.65v9.51
					h2.9c2.8,0,4.82-2.09,4.82-4.76c0-2.69-2.02-4.76-4.82-4.76L36.15,119.65L36.15,119.65z"/>
				<path d="M49.96,116.87h8.78v2.6h-5.72v3.49h4.86v2.6h-4.86v3.77h5.72v2.6h-8.78V116.87z"/>
				<path d="M67.89,116.87h3.06v12.29h5.72v2.78h-8.78V116.87z"/>
				<path d="M76.02,123.07l1.94-6.2h3.1l-2.5,6.2H76.02z"/>
				<path d="M83.42,116.87h3.06v15.06h-3.06V116.87z"/>
				<path d="M90.7,116.87h3.92l6.73,10.78v-10.78h3.06v15.06h-3.92l-6.73-10.82v10.82H90.7L90.7,116.87L90.7,116.87z"/>
				<path d="M108.62,116.87h3.92l6.73,10.78v-10.78h3.06v15.06h-3.92l-6.73-10.82v10.82h-3.06V116.87z"/>
				<path d="M141.24,124.4c0,4.3-3.25,7.96-7.98,7.96c-4.76,0-8-3.66-8-7.96c0-4.3,3.25-7.96,8-7.96
					C137.99,116.44,141.24,120.1,141.24,124.4z M138.1,124.4c0-2.88-2.02-5.1-4.84-5.1c-2.84,0-4.86,2.22-4.86,5.1
					c0,2.88,2.02,5.1,4.86,5.1C136.08,129.5,138.1,127.29,138.1,124.4z"/>
				<path d="M145.18,116.87l4.45,11.77l4.45-11.77h3.25l-5.7,15.06h-4l-5.7-15.06H145.18z"/>
				<path d="M162.13,116.87h4l5.7,15.06h-3.25l-1.44-3.92h-6.02l-1.44,3.92h-3.25L162.13,116.87z M166.2,125.41l-2.07-5.66
					l-2.07,5.66H166.2z"/>
				<path d="M171.11,116.87h12.35v2.78h-4.65v12.29h-3.06v-12.29h-4.65V116.87z"/>
				<path d="M186.15,116.87h3.06v15.06h-3.06V116.87z"/>
				<path d="M208.12,124.4c0,4.3-3.25,7.96-7.98,7.96c-4.76,0-8-3.66-8-7.96c0-4.3,3.25-7.96,8-7.96
					C204.87,116.44,208.12,120.1,208.12,124.4z M204.97,124.4c0-2.88-2.02-5.1-4.84-5.1c-2.84,0-4.86,2.22-4.86,5.1
					c0,2.88,2.02,5.1,4.86,5.1C202.95,129.5,204.97,127.29,204.97,124.4z"/>
				<path d="M211.04,116.87h3.92l6.73,10.78v-10.78h3.06v15.06h-3.92l-6.73-10.82v10.82h-3.06L211.04,116.87L211.04,116.87z"/>
			</g>
		</g>
		<g>
			<path d="M50.37,173.59c0.41,0,0.76,0.31,0.57,1.09l-1.9,0.44C49.37,174.24,49.93,173.59,50.37,173.59 M51.42,176.65h-0.38
				c-0.47,0.56-0.98,1-1.49,1c-0.52,0-0.78-0.31-0.78-1c0-0.29,0.03-0.57,0.09-0.84l3.06-1c0.6-1.41-0.12-2.03-0.96-2.03
				c-1.45,0-3.09,2.42-3.09,4.54c0,0.95,0.45,1.47,1.16,1.47C49.85,178.78,50.71,177.98,51.42,176.65 M50.81,172.21l2.15-2.01v-0.23
				H51.8l-1.33,2.24L50.81,172.21L50.81,172.21z M44.21,173.62h1.02l-1.61,4.41c-0.14,0.38,0.06,0.75,0.44,0.75
				c0.92,0,2.4-0.91,2.92-2.14h-0.29c-0.41,0.43-1.19,1-1.87,1.13l1.48-4.14h1.51l0.19-0.63h-1.47l0.56-1.59H46.5L45.45,173
				l-1.25,0.18L44.21,173.62L44.21,173.62z M42.84,173.42c0.12-0.41-0.15-0.64-0.36-0.64c-0.88,0-1.93,0.8-2.35,1.91h0.29
				c0.29-0.41,0.77-0.86,1.23-0.94l-1.69,4.4c-0.15,0.41,0.15,0.64,0.36,0.64c0.84,0,1.82-0.81,2.24-1.91h-0.29
				c-0.29,0.41-0.77,0.86-1.23,0.94L42.84,173.42z M43.15,171.21c0.4,0,0.73-0.32,0.73-0.73c0-0.4-0.33-0.73-0.73-0.73
				c-0.41,0-0.73,0.33-0.73,0.73C42.42,170.89,42.74,171.21,43.15,171.21 M33.42,177.96c-0.22,0.5,0.01,0.82,0.5,0.82
				c0.3,0,0.43-0.08,0.55-0.4l1.17-3.1c0.54-0.66,1.66-1.37,2.1-1.37c0.32,0,0.28,0.26,0.07,0.66l-1.8,3.46
				c-0.18,0.34,0.06,0.75,0.44,0.75c0.88,0,1.93-0.8,2.35-1.91h-0.29c-0.29,0.41-0.77,0.86-1.23,0.94l1.55-3.13
				c0.2-0.4,0.3-0.77,0.3-1.07c0-0.51-0.29-0.84-0.82-0.84c-0.76,0-1.54,0.86-2.45,1.92v-0.82c0-0.59-0.19-1.1-0.72-1.1
				c-0.33,0-0.65,0.29-0.95,0.7v0.11c0.57-0.03,0.83,0.83,0.42,1.73L33.42,177.96z M33.39,174.12c0.21-0.72,0.1-1.35-0.45-1.35
				c-0.65,0-0.82,0.5-1.48,1.92v-0.82c0-0.59-0.19-1.1-0.72-1.1c-0.62,0-1.18,0.96-1.61,1.91h0.29c0.3-0.43,0.57-0.68,0.8-0.68
				c0.26,0,0.41,0.41,0,1.31l-1.19,2.65c-0.22,0.5,0.01,0.82,0.5,0.82c0.3,0,0.43-0.08,0.55-0.4l1.17-3.1
				c0.33-0.41,0.63-0.76,1-1.16L33.39,174.12L33.39,174.12z M26.61,173.59c0.41,0,0.76,0.31,0.57,1.09l-1.9,0.44
				C25.62,174.24,26.17,173.59,26.61,173.59 M27.66,176.65h-0.38c-0.47,0.56-0.98,1-1.49,1c-0.52,0-0.78-0.31-0.78-1
				c0-0.29,0.03-0.57,0.09-0.84l3.06-1c0.6-1.41-0.12-2.03-0.96-2.03c-1.45,0-3.09,2.42-3.09,4.54c0,0.95,0.45,1.47,1.16,1.47
				C26.09,178.78,26.96,177.98,27.66,176.65 M20.45,173.62h1.02l-1.61,4.41c-0.14,0.38,0.06,0.75,0.44,0.75
				c0.92,0,2.4-0.91,2.92-2.14h-0.29c-0.41,0.43-1.19,1-1.87,1.13l1.48-4.14h1.51l0.19-0.63h-1.47l0.56-1.59h-0.59L21.7,173
				l-1.25,0.18L20.45,173.62L20.45,173.62z M14.88,177.06c0-1.36,1.51-3.2,2.36-3.2c0.19,0,0.36,0.02,0.52,0.07l-0.88,2.35
				c-0.51,0.62-1.29,1.37-1.66,1.37C15.01,177.64,14.88,177.47,14.88,177.06 M19.52,172.52l-0.46-0.03L18.54,173h-0.11
				c-2.52,0-4.69,2.83-4.69,4.88c0,0.57,0.35,0.91,0.91,0.91c0.65,0,1.29-0.93,2.01-1.92l-0.03,0.35c-0.09,1.02,0.22,1.57,0.75,1.57
				c0.62,0,1.18-0.96,1.61-1.91H18.7c-0.3,0.43-0.57,0.68-0.8,0.68c-0.23,0-0.4-0.42,0-1.31L19.52,172.52z M14.16,174.12
				c0.21-0.72,0.1-1.35-0.45-1.35c-0.65,0-0.82,0.5-1.48,1.92v-0.82c0-0.59-0.19-1.1-0.72-1.1c-0.62,0-1.18,0.96-1.61,1.91h0.29
				c0.3-0.43,0.57-0.68,0.8-0.68c0.26,0,0.41,0.41,0,1.31l-1.19,2.65c-0.22,0.5,0.01,0.82,0.5,0.82c0.3,0,0.43-0.08,0.55-0.4
				l1.17-3.1c0.33-0.41,0.63-0.76,1-1.16L14.16,174.12L14.16,174.12z M5.7,178.56l0.11-0.34c-1.47-0.28-1.66-0.28-1.07-1.88
				l0.6-1.65h1.62c0.73,0,0.74,0.3,0.63,1.09h0.42l0.97-2.66H8.56c-0.36,0.63-0.65,1.09-1.45,1.09h-1.6l0.85-2.33
				c0.26-0.74,0.42-0.89,1.41-0.89h0.71c1.03,0,1.15,0.28,1.15,1.31h0.41l0.34-1.81h-6.1l-0.11,0.34c1.18,0.24,1.29,0.35,0.74,1.88
				l-1.33,3.62c-0.55,1.51-0.78,1.63-2.14,1.88l-0.1,0.34L5.7,178.56L5.7,178.56z"/>
			<path d="M35.58,159.79c0.41,0,0.76,0.31,0.57,1.09l-1.9,0.44C34.59,160.44,35.14,159.79,35.58,159.79 M36.63,162.85h-0.38
				c-0.47,0.56-0.98,1-1.49,1c-0.52,0-0.78-0.31-0.78-1c0-0.29,0.03-0.57,0.09-0.84l3.06-1c0.6-1.41-0.12-2.03-0.96-2.03
				c-1.45,0-3.09,2.42-3.09,4.54c0,0.95,0.45,1.47,1.16,1.47C35.06,164.98,35.92,164.17,36.63,162.85 M36.02,158.41l2.15-2.01v-0.23
				h-1.16l-1.33,2.24L36.02,158.41L36.02,158.41z M29.42,159.82h1.02l-1.61,4.41c-0.14,0.38,0.06,0.75,0.44,0.75
				c0.92,0,2.4-0.91,2.92-2.14h-0.29c-0.41,0.43-1.19,1-1.87,1.13l1.48-4.14h1.51l0.19-0.63h-1.47l0.56-1.59h-0.59l-1.05,1.59
				l-1.25,0.18L29.42,159.82L29.42,159.82z M28.05,159.61c0.12-0.41-0.15-0.64-0.36-0.64c-0.88,0-1.93,0.8-2.35,1.91h0.29
				c0.29-0.41,0.77-0.86,1.23-0.94l-1.69,4.4c-0.15,0.41,0.15,0.64,0.36,0.64c0.84,0,1.82-0.81,2.24-1.91h-0.29
				c-0.29,0.41-0.77,0.86-1.23,0.94L28.05,159.61z M28.36,157.4c0.4,0,0.73-0.32,0.73-0.73c0-0.4-0.33-0.73-0.73-0.73
				c-0.41,0-0.73,0.33-0.73,0.73C27.63,157.08,27.95,157.4,28.36,157.4 M22.48,164.01l3.08-8.07l-0.1-0.12l-1.93,0.22v0.23
				l0.38,0.29c0.34,0.26,0.23,0.52-0.08,1.34l-2.41,6.34c-0.18,0.34,0.06,0.75,0.44,0.75c0.88,0,1.82-0.8,2.24-1.91h-0.29
				C23.53,163.48,22.94,163.93,22.48,164.01 M16.63,163.26c0-1.36,1.51-3.2,2.36-3.2c0.19,0,0.36,0.02,0.52,0.07l-0.88,2.35
				c-0.51,0.62-1.29,1.37-1.66,1.37C16.76,163.84,16.63,163.66,16.63,163.26 M21.28,158.72l-0.46-0.03l-0.52,0.51h-0.11
				c-2.52,0-4.69,2.83-4.69,4.88c0,0.57,0.35,0.91,0.91,0.91c0.65,0,1.29-0.93,2.01-1.92l-0.03,0.35c-0.09,1.02,0.22,1.57,0.75,1.57
				c0.62,0,1.18-0.96,1.61-1.91h-0.29c-0.3,0.43-0.57,0.68-0.8,0.68c-0.23,0-0.4-0.42,0-1.31L21.28,158.72z M10.04,166.05
				c0-0.59,0.56-0.95,1.37-1.27c0.26,0.13,0.66,0.28,1.19,0.45c0.84,0.28,1.16,0.39,1.16,0.64c0,0.54-0.92,0.95-2.16,0.95
				C10.55,166.82,10.04,166.6,10.04,166.05 M12.32,162.48c-0.36,0-0.51-0.31-0.51-0.66c0-0.98,0.53-2.43,1.36-2.43
				c0.36,0,0.51,0.31,0.51,0.66C13.68,161.04,13.15,162.48,12.32,162.48 M14.72,165.51c0-0.71-0.63-0.96-1.66-1.27
				c-0.88-0.26-1.28-0.34-1.28-0.63c0-0.23,0.19-0.51,0.56-0.71c1.45-0.08,2.39-1.38,2.39-2.47c0-0.23-0.04-0.43-0.12-0.61h1.23
				l0.19-0.63h-1.94c-0.23-0.14-0.51-0.22-0.78-0.22c-1.54,0-2.53,1.35-2.53,2.44c0,0.83,0.53,1.35,1.17,1.47
				c-0.72,0.32-1.12,0.7-1.12,1.14c0,0.25,0.09,0.43,0.3,0.6c-1.66,0.49-2.31,1.04-2.31,1.82c0,0.76,1,1.08,2.2,1.08
				C13.03,167.52,14.72,166.42,14.72,165.51 M7,160.78c0.73,0,0.74,0.3,0.63,1.09h0.42l0.97-2.66H8.6
				c-0.36,0.63-0.65,1.09-1.45,1.09h-1.6l0.81-2.22c0.26-0.74,0.42-0.88,1.41-0.88h0.71c1.03,0,1.15,0.28,1.15,1.3h0.41l0.34-1.81
				h-6.1l-0.11,0.34c1.18,0.24,1.29,0.35,0.74,1.88l-1.33,3.62c-0.55,1.51-0.78,1.63-2.14,1.88l-0.1,0.34h6.78l1.21-1.92H8.88
				c-0.77,0.73-1.74,1.42-3.1,1.42c-1.8,0-1.63-0.08-1.04-1.72l0.64-1.76L7,160.78L7,160.78z M7.89,156.15l2.15-1.48v-0.23h-1.3
				l-1.19,1.71L7.89,156.15L7.89,156.15z"/>
			<path d="M34.86,145.98c0.41,0,0.76,0.31,0.57,1.09l-1.9,0.44C33.87,146.64,34.42,145.98,34.86,145.98 M35.91,149.04h-0.38
				c-0.47,0.56-0.98,1-1.49,1c-0.52,0-0.78-0.31-0.78-1c0-0.29,0.03-0.57,0.09-0.84l3.06-1c0.6-1.41-0.12-2.03-0.96-2.03
				c-1.45,0-3.09,2.42-3.09,4.54c0,0.95,0.45,1.47,1.16,1.47C34.34,151.17,35.21,150.37,35.91,149.04 M35.3,144.6l2.15-2.01v-0.23
				H36.3l-1.33,2.24L35.3,144.6L35.3,144.6z M28.98,146.02h0.81l-1.61,4.41c-0.14,0.38,0.06,0.75,0.44,0.75
				c0.92,0,2.4-0.91,2.92-2.14h-0.29c-0.41,0.43-1.19,1-1.87,1.13l1.48-4.14h1.51l0.19-0.63h-1.47l0.56-1.59h-0.59l-1.05,1.59
				l-1.04,0.18L28.98,146.02L28.98,146.02z M28.18,146.51c0.21-0.72,0.1-1.35-0.45-1.35c-0.65,0-0.82,0.5-1.48,1.92v-0.82
				c0-0.59-0.19-1.1-0.72-1.1c-0.62,0-1.18,0.96-1.61,1.91h0.29c0.3-0.43,0.57-0.68,0.8-0.68c0.26,0,0.41,0.41,0,1.31l-1.19,2.65
				c-0.22,0.5,0.01,0.82,0.5,0.82c0.3,0,0.43-0.08,0.55-0.4l1.17-3.1c0.33-0.41,0.63-0.76,1-1.16L28.18,146.51L28.18,146.51z
				 M21.4,145.98c0.41,0,0.76,0.31,0.57,1.09l-1.9,0.44C20.41,146.64,20.96,145.98,21.4,145.98 M22.45,149.04h-0.38
				c-0.47,0.56-0.98,1-1.49,1c-0.52,0-0.78-0.31-0.78-1c0-0.29,0.03-0.57,0.09-0.84l3.06-1c0.6-1.41-0.12-2.03-0.96-2.03
				c-1.45,0-3.09,2.42-3.09,4.54c0,0.95,0.45,1.47,1.16,1.47C20.88,151.17,21.74,150.37,22.45,149.04 M14.95,150.28
				c-0.3,0-0.73-0.28-0.73-0.52c0-0.08,0.13-0.42,0.3-0.85l0.5-1.31c0.53-0.63,1.34-1.3,1.79-1.3c0.28,0,0.49,0.18,0.49,0.59
				C17.29,148.08,16.17,150.28,14.95,150.28 M18.43,146.39c0-0.89-0.33-1.23-0.95-1.23c-0.77,0-1.5,0.82-2.23,1.81l1.84-4.85
				l-0.1-0.12l-1.93,0.22v0.23l0.38,0.29c0.34,0.26,0.23,0.54-0.08,1.34l-1.99,5.12c-0.14,0.38-0.32,0.82-0.32,0.94
				c0,0.53,0.72,1.03,1.37,1.03C15.92,151.17,18.43,148.47,18.43,146.39 M12.42,145.81c0.12-0.41-0.15-0.64-0.36-0.64
				c-0.88,0-1.93,0.8-2.35,1.91h0.29c0.29-0.41,0.77-0.86,1.23-0.94l-1.69,4.4c-0.15,0.41,0.15,0.64,0.36,0.64
				c0.84,0,1.82-0.81,2.24-1.91h-0.29c-0.29,0.41-0.77,0.86-1.23,0.94L12.42,145.81z M12.73,143.6c0.4,0,0.73-0.32,0.73-0.73
				c0-0.4-0.33-0.73-0.73-0.73c-0.41,0-0.73,0.33-0.73,0.73C12,143.28,12.32,143.6,12.73,143.6 M8.28,142.89H4.26l-0.11,0.34
				c1.18,0.24,1.29,0.35,0.74,1.88l-1.3,3.62c-0.55,1.51-0.78,1.63-2.14,1.88l-0.1,0.34h6.12l1.33-2.36H8.33
				c-0.75,0.83-1.63,1.87-2.99,1.87c-1.03,0-1.15-0.18-0.6-1.72l1.3-3.62c0.54-1.51,0.78-1.63,2.14-1.88L8.28,142.89z"/>
		</g>
		<g>
			<path class="st0" d="M24.04,17.64c0.21-0.21,0.43-0.45,0.65-0.68h0c0.4-0.45,0.8-0.89,1.26-1.29c0.14-0.13,0.28-0.24,0.41-0.33
				c0.04-0.04,0.04-0.11,0.08-0.15c-0.19,0.08-0.3,0.23-0.49,0.3c-0.04,0-0.08-0.04-0.04-0.08c0.13-0.1,0.27-0.2,0.4-0.3
				c-0.01,0-0.02,0-0.03,0c-0.04,0-0.04-0.04-0.04-0.08c-0.49-0.08-0.87,0.26-1.21,0.57c-0.08,0.04-0.15-0.04-0.19-0.04
				c-0.57,0.19-0.98,0.68-1.55,0.91c0-0.04,0-0.04,0-0.08c-0.23,0.08-0.45,0.21-0.68,0.26c-0.34,0.08-0.64,0.04-0.94,0.04
				c-0.46,0.05-0.92,0.15-1.37,0.24c-0.01,0-0.03,0.01-0.04,0.01c-0.25,0.07-0.48,0.16-0.7,0.28c-0.01,0-0.02,0.01-0.03,0.02
				c-0.02,0.02-0.04,0.05-0.05,0.07c-0.08,0.09-0.15,0.17-0.26,0.23c-0.23,0.12-0.42,0.32-0.63,0.49c-0.01,0.01-0.04,0.02-0.06,0.02
				c-0.2,0.19-0.4,0.39-0.61,0.58c-0.01,0.01-0.07,0.02-0.12,0.01c0,0,0,0,0,0c0.01-0.01,0.01-0.02,0.02-0.04
				c0.03-0.05,0.06-0.11,0.1-0.16c0.04-0.06,0.07-0.12,0.11-0.18c0.05-0.08,0.1-0.16,0.16-0.23c0.01-0.02,0.01-0.04,0-0.05
				c-0.01-0.01-0.03-0.02-0.05-0.02c0.19-0.18,0.41-0.34,0.63-0.47c0,0,0,0,0-0.01c-0.03,0.01-0.06-0.01-0.04-0.04
				c0.02-0.03,0.04-0.07,0.07-0.1c0-0.01,0.01-0.02,0.01-0.03c-0.01-0.01-0.02-0.02-0.03-0.03c-0.06,0.04-0.13,0.08-0.18,0.12
				c-0.09,0.08-0.16,0.25-0.3,0.25c-0.01,0-0.04,0-0.06-0.01c-0.02,0-0.03-0.01-0.04-0.01c0,0,0-0.01,0-0.01c0,0,0-0.01,0.01-0.01
				c0,0,0-0.01,0.01-0.01c0.01-0.01,0.01-0.02,0.02-0.03c0.01-0.01,0.01-0.02,0.02-0.03c0.01-0.01,0.01-0.02,0.01-0.03
				c0.01-0.02,0.02-0.03,0.03-0.05c0.01-0.01,0.01-0.02,0.02-0.03c0.02-0.03,0.03-0.06,0.05-0.08c0.01-0.01,0.02-0.03,0.02-0.04
				c0.01-0.02,0.03-0.05,0.04-0.07c0.02-0.03,0-0.06-0.03-0.07c0.07-0.09,0.16-0.17,0.26-0.23h-0.01c0.14-0.07,0.29-0.16,0.43-0.24
				c0.02-0.02,0.04-0.04,0.06-0.05c-0.22,0.07-0.41,0.17-0.6,0.3c0,0-0.05,0.02-0.06,0.03c0,0-0.04,0.02-0.09-0.03
				c-0.01-0.01-0.01-0.02-0.01-0.03c0.04-0.08,0.15-0.11,0.23-0.19c0.04,0,0.08,0,0.08,0.04c1.21-0.94,2.87-0.72,4.27-1.21
				c0.11-0.08,0.23-0.15,0.34-0.23c0.19-0.08,0.34-0.26,0.57-0.38c0.3-0.23,0.53-0.49,0.64-0.87c0-0.04-0.04-0.08-0.04-0.08
				c-0.49,0.53-1.06,0.94-1.66,1.25c-0.79,0.42-1.66,0.34-2.49,0.45c0.04-0.08,0.11-0.08,0.19-0.08c0-0.11,0.08-0.15,0.15-0.23
				c0.04,0,0.08,0,0.11,0c0.04,0,0.04-0.08,0.08-0.08c0.08,0,0.19-0.04,0.15-0.04c-0.11-0.15-0.34,0.11-0.53,0
				c0.08-0.08,0.04-0.19,0.11-0.23c0.04,0,0.11,0,0.15,0c0-0.08,0.08-0.15,0.08-0.15c0.57-0.34,1.1-0.6,1.62-0.91
				c-0.11,0-0.19,0.11-0.3,0.04c0.08,0,0-0.11,0.08-0.11c0.42-0.11,0.76-0.34,1.17-0.49c-0.15,0-0.26,0.11-0.42,0
				c0.08-0.04,0.11-0.11,0.23-0.11c0-0.04,0-0.08,0-0.11c0-0.04,0.04-0.04,0.08-0.04c-0.04,0-0.08-0.04-0.08-0.04
				c0.04-0.08,0.15-0.04,0.23-0.11c-0.04,0-0.11,0-0.11-0.04c0.11-0.15,0.3-0.19,0.49-0.23c-0.04-0.08-0.15,0-0.15-0.08
				c0-0.04,0.04-0.04,0.08-0.04c-0.04,0-0.04,0-0.08,0c-0.08-0.04-0.04-0.11-0.04-0.15c0.23-0.26,0.23-0.6,0.34-0.91
				c-0.04,0-0.08,0-0.08-0.04c-0.38,0.42-0.98,0.57-1.55,0.72c-0.04,0-0.15,0-0.19,0c-0.19,0.08-0.45,0.08-0.64-0.04
				c-0.15-0.08-0.23-0.19-0.38-0.3c-0.3-0.19-0.6-0.34-0.94-0.45c-0.94-0.3-1.93-0.45-2.91-0.42c0.42-0.23,0.87-0.25,1.32-0.38
				c0.64-0.19,1.25-0.42,1.93-0.38c-0.11-0.04-0.26,0-0.38,0c-0.53-0.04-1.06,0.11-1.62,0.23c-0.38,0.08-0.72,0.23-1.1,0.3
				c-0.23,0.08-0.34,0.3-0.6,0.26c0,0,0-0.08,0-0.11c0.38-0.45,0.83-0.91,1.44-0.94c0.68-0.11,1.32,0,2,0.08
				c0.49,0.04,0.94,0.15,1.44,0.26c0.19,0,0.23,0.3,0.38,0.34c0.23,0.08,0.45,0,0.68,0.15c0-0.08-0.04-0.15,0-0.23
				c0.15-0.15,0.34,0.04,0.49-0.04c0.3-0.19-0.26-0.53-0.42-0.79c0-0.04,0.04-0.08,0.04-0.08c0.3,0.26,0.53,0.57,0.91,0.76
				c0.19,0.08,0.64,0.19,0.57-0.04c-0.19-0.42-0.57-0.76-0.87-1.13c0-0.04,0-0.11,0-0.15c-0.08,0-0.08-0.04-0.11-0.08
				c0-0.04,0-0.11,0-0.15c-0.15-0.08-0.11-0.23-0.19-0.34c-0.11-0.19-0.04-0.45-0.11-0.68s-0.11-0.42-0.15-0.64
				c-0.11-0.64-0.26-1.21-0.34-1.81c-0.08-0.72,0.42-1.28,0.76-1.93c0.26-0.45,0.57-0.91,1.06-1.21c0.11-0.45,0.42-0.83,0.72-1.21
				c0.3-0.37,0.8-0.59,1.17-0.76c0.53-0.24,1-0.38,1-0.38H1.3v20h18.37c0.72-0.52,1.44-0.76,2.44-1.26
				C22.59,18.51,23.67,18.01,24.04,17.64z M18.23,14.93c-0.08,0-0.23,0.04-0.19-0.04c0.04-0.19,0.3-0.19,0.45-0.26
				c0.08-0.04,0.19-0.11,0.26-0.08c0.08,0.11,0.19,0.08,0.26,0.15C18.8,14.93,18.49,14.82,18.23,14.93z M12.45,14.1
				c0,0-0.04-0.04-0.04-0.08c0.49-0.64,0.87-1.25,1.21-1.93c0.49-0.26,0.9-0.65,1.28-1.06c0.64-0.68,1.32-1.28,2.12-1.66
				C17.32,9.27,17.7,9.3,18,9.42c-0.11,0.15-0.3,0.11-0.45,0.23c-0.04,0-0.08,0-0.11-0.04c0.04-0.04,0.04-0.08,0.04-0.11
				c-0.38,0.42-0.91,0.6-1.21,1.1c-0.23,0.38-0.38,0.87-0.87,0.98c-0.15,0.04,0.04-0.11-0.04-0.08
				C14.19,12.21,13.35,13.08,12.45,14.1z M15.58,11.61c-0.04,0.08-0.08,0.08-0.11,0.15c-0.04,0.08-0.08,0.11-0.15,0.15
				c-0.04,0-0.08,0-0.08-0.04c0.04-0.15,0.15-0.3,0.3-0.34C15.58,11.53,15.58,11.57,15.58,11.61z M17.34,17.27
				c-0.02,0.04-0.06,0.08-0.09,0.11c0.05,0.01,0.08,0.03,0.05,0.06c-0.09,0.08-0.17,0.16-0.29,0.2c-0.01,0-0.03,0.01-0.06,0.01
				c-0.05,0.04-0.09,0.09-0.14,0.13c-0.04,0.04-0.25,0.01-0.19-0.05c0.1-0.08,0.18-0.18,0.28-0.26c0.05-0.05,0.11-0.1,0.16-0.15
				c0.03-0.03,0.05-0.06,0.08-0.08C17.17,17.21,17.37,17.2,17.34,17.27z M16.66,16.96C16.66,16.96,16.66,16.96,16.66,16.96
				c-0.15,0.11-0.29,0.21-0.44,0.29c-0.16,0.09-0.33,0.17-0.5,0.24c0,0,0-0.01,0-0.01c-0.01-0.02-0.04-0.03-0.06-0.02
				c-0.14,0.08-0.26,0.18-0.38,0.29c-0.02,0.02-0.04,0.03-0.05,0.05c0,0,0,0,0,0c0,0,0,0,0,0c-0.02,0.02-0.04,0.04-0.05,0.05
				c0,0,0,0-0.01,0.01c0,0,0,0,0,0c-0.03,0.03-0.05,0.05-0.08,0.09c-0.02,0.02-0.03,0.04-0.05,0.05C15,18.04,14.93,18.04,14.94,18
				c0,0,0-0.01,0-0.01c-0.02,0.01-0.04,0.02-0.07,0.03c-0.02,0.01-0.04,0.02-0.06,0.03c-0.01,0-0.02,0-0.03,0
				c-0.01,0-0.02,0-0.03,0.01c-0.05,0.04-0.09,0.07-0.14,0.12c-0.08,0.07-0.15,0.15-0.22,0.23c0,0,0,0,0,0c0,0-0.01,0.01-0.01,0.01
				c0,0-0.01,0.01-0.01,0.01c0,0.01-0.01,0.01-0.01,0.02c0,0,0,0,0,0c-0.01,0.01-0.02,0.03-0.03,0.04c0,0,0,0,0,0
				c-0.01,0.01-0.02,0.01-0.03,0.01c-0.01-0.01-0.01-0.01-0.02-0.02c0-0.01-0.01-0.01-0.01-0.02c-0.01-0.02-0.02-0.04-0.03-0.06
				c0,0,0,0,0,0c0-0.01-0.01-0.01-0.01-0.02c0.04-0.04,0.08-0.09,0.12-0.14c0,0,0.01-0.01,0.01-0.01c0.01-0.02,0.03-0.03,0.04-0.05
				c0.02-0.03,0.04-0.05,0.06-0.08c0.01-0.01,0.02-0.02,0.02-0.03c0.04-0.05,0.08-0.11,0.12-0.16c0,0,0,0,0,0
				c0.01-0.01,0.01-0.02,0.02-0.02c0.02-0.03,0.04-0.05,0.05-0.08c0.01-0.02,0.03-0.05,0.04-0.08c0,0,0,0,0-0.01c0,0,0-0.01,0-0.01
				c0,0,0-0.01,0.01-0.01c0.01-0.03,0.03-0.06,0.04-0.09c0,0,0-0.01,0-0.01c0-0.01,0.01-0.02,0.01-0.02c0-0.01,0.01-0.03,0.01-0.04
				v0c0,0,0-0.01,0-0.01c0-0.02,0.01-0.04,0.01-0.06c0-0.01,0-0.02,0-0.03c0.04-0.07,0.09-0.14,0.15-0.2
				c-0.01,0-0.01,0.01-0.02,0.01c-0.05,0.03-0.09,0.08-0.14,0.12c-0.04,0.03-0.12-0.02-0.07-0.06c0.03-0.02,0.06-0.05,0.09-0.08
				c0,0,0,0,0-0.01c0.06-0.06,0.12-0.14,0.19-0.19c0.04-0.03,0.08-0.06,0.12-0.09c0.01,0,0.01-0.01,0.02-0.02
				c0.03-0.03,0.05-0.07,0.08-0.1c0,0,0,0,0,0c0.36-0.35,0.97-0.33,1.45-0.56c0.19-0.08,0.42,0.04,0.6,0c0.11,0,0.23,0,0.34,0.08
				C17.29,16.55,16.97,16.76,16.66,16.96z M17.44,14.33c-0.04-0.04,0.11,0,0.15-0.08c-0.11,0-0.19,0-0.3,0
				c-0.04,0-0.04-0.04-0.04-0.08c-0.19,0.04-0.42,0.11-0.6,0.15c-0.26,0.08-0.49,0.26-0.79,0.34c-0.42,0.15-0.76,0.49-1.21,0.64
				c-0.04,0-0.04-0.04-0.04-0.08c0.04-0.11,0.19-0.15,0.26-0.26c0-0.04,0-0.08-0.04-0.08c0.3-0.42,0.72-0.64,1.1-0.98
				c0-0.04,0-0.08,0-0.11c0.11-0.15,0.3-0.23,0.38-0.42c0.04-0.11,0.19-0.26,0.38-0.34c-0.04-0.04-0.11-0.04-0.11-0.11
				c-0.15,0-0.3,0.08-0.45-0.04c0.07-0.07,0.15-0.11,0.24-0.13c-0.03-0.01-0.06-0.02-0.09-0.05c-0.04-0.08,0.07-0.16,0.19-0.19
				c0.15-0.04,0.34-0.04,0.45-0.15c-0.26-0.04-0.57,0.08-0.83-0.08c0.19-0.49,0.49-0.91,0.94-1.13c0.04,0,0.11,0,0.11,0.04
				c0,0.19-0.11,0.34-0.3,0.38c0.3,0.08,0.6,0.08,0.91,0.23c-0.04,0.08-0.11,0.04-0.15,0.04c0.19,0.11,0.42,0.04,0.6,0.19
				c-0.11,0.11-0.23,0-0.34,0c1.17,0.34,2.42,0.6,3.4,1.36c-0.83,0.42-1.7,0.6-2.61,0.79c-0.11,0-0.19,0-0.3-0.04
				c0,0.04,0,0.11-0.04,0.11c-0.15,0-0.26,0-0.38,0.08C17.78,14.4,17.55,14.44,17.44,14.33z"/>
			<g>
				<path class="st1" d="M56.3,0H34.79c0,0,0.04,0.01,0.2,0.09c0.17,0.09,0.4,0.21,0.54,0.29c0.28,0.14,0.55,0.33,0.72,0.6
					c0.08,0.11,0.19,0.34,0.11,0.49c-0.08,0.19-0.11,0.49-0.3,0.57c-0.23,0.11-0.53,0.11-0.79,0.08c-0.15,0-0.3-0.04-0.45-0.08
					c0.57,0.23,1.1,0.49,1.47,1.02c0.04,0.08,0.19,0.11,0.34,0.11c0.04,0,0.04,0.08,0.04,0.11c-0.08,0.08-0.15,0.11-0.11,0.23
					c0.04,0,0.08,0,0.11,0c0.19-0.08,0.15-0.45,0.42-0.34c0.19,0.11,0.26,0.38,0.15,0.57c-0.15,0.15-0.3,0.26-0.45,0.38
					c-0.04,0.08-0.04,0.19,0,0.26c0.11,0.15,0.15,0.3,0.19,0.45c0.11,0.26,0.15,0.57,0.26,0.83c0.15,0.57,0.3,1.13,0.26,1.7
					c0,0.3-0.15,0.57-0.04,0.87c0.08,0.3,0.26,0.53,0.42,0.79c0.15,0.23,0.3,0.38,0.42,0.6c0.23,0.38,0.64,0.76,0.45,1.21
					c-0.11,0.26-0.53,0.23-0.79,0.38c-0.23,0.19-0.04,0.49,0.08,0.68c0.19,0.34-0.23,0.57-0.49,0.68c0.08,0.11,0.23,0.08,0.26,0.15
					c0.04,0.19,0.23,0.3,0.11,0.49c-0.15,0.23-0.6,0.34-0.38,0.68c0.15,0.26,0.05,0.56-0.04,0.83c-0.11,0.34-0.42,0.49-0.68,0.57
					c-0.23,0.08-0.49,0.08-0.72,0.04c-0.08-0.04-0.15-0.08-0.23-0.08c-0.64-0.08-1.29-0.26-1.93-0.26
					c-0.19,0.04-0.38,0.08-0.53,0.15c-0.17,0.13-0.32,0.26-0.46,0.4c0,0,0,0,0,0c-0.03,0.03-0.06,0.06-0.08,0.09
					c-0.02,0.02-0.03,0.04-0.05,0.06c-0.01,0.01-0.02,0.03-0.03,0.04c-0.11,0.14-0.21,0.28-0.3,0.44c-0.01,0.01-0.01,0.02-0.02,0.03
					c-0.01,0.02-0.02,0.04-0.03,0.05c-0.12,0.23-0.22,0.46-0.29,0.69c-0.26,0.87-0.14,1.61,0.04,1.79c0.05,0.05,1.25,0.42,2.08,0.79
					c0.39,0.17,0.66,0.31,0.89,0.45H56.3L56.3,0L56.3,0z"/>
			</g>
			<path class="st2" d="M36.07,7.3c0.15,0.04,0.38,0.04,0.38,0.11c-0.08,0.3-0.53,0.38-0.76,0.68h-0.11
				c-0.11,0.08-0.08,0.26-0.19,0.26c-0.11-0.04-0.23,0-0.34,0.04c0.15,0.15,0.34,0.26,0.57,0.23c0.04,0,0.11,0.08,0.11,0.15
				c0,0,0.04,0,0.08-0.04c0.04,0,0.08,0,0.08,0.04v0.15c-0.11,0.15-0.3,0.08-0.45,0.11c0.3,0.08,0.6,0.08,0.87,0
				c0.23-0.08,0-0.45,0.15-0.64c-0.08,0,0-0.11-0.08-0.11c0.08-0.08,0.15-0.19,0.23-0.23c0.08,0,0.19-0.04,0.23-0.11
				c0-0.08-0.15-0.11-0.11-0.19c0.23-0.15,0.42-0.38,0.34-0.6c-0.04-0.11-0.34-0.11-0.53-0.19c-0.19-0.08-0.42,0-0.64,0.04
				c-0.19,0-0.38,0.11-0.57,0.15c-0.26,0.08-0.49,0.23-0.72,0.38c0.26-0.11,0.53-0.15,0.83-0.23C35.65,7.3,35.85,7.24,36.07,7.3z"/>
		</g>
	</g>
</g>
<g id="zone">
	<rect x="1.3" class="st3" width="223.45" height="178.56"/>
</g>
</svg>
